<mxfile host="app.diagrams.net" agent="Mozilla/5.0 (Windows NT 10.0; Win64; x64) AppleWebKit/537.36 (KHTML, like Gecko) Chrome/137.0.0.0 Safari/537.36" version="27.1.4">
  <diagram name="Page-1" id="iJUhqNGgPa26sCEfSE36">
    <mxGraphModel grid="1" page="1" gridSize="10" guides="1" tooltips="1" connect="1" arrows="1" fold="1" pageScale="1" pageWidth="850" pageHeight="1100" math="0" shadow="0">
      <root>
        <mxCell id="0" />
        <mxCell id="1" parent="0" />
        <mxCell id="ZIB16xMMiRdHyzclf_tV-30" style="edgeStyle=orthogonalEdgeStyle;rounded=0;orthogonalLoop=1;jettySize=auto;html=1;entryX=0;entryY=0.5;entryDx=0;entryDy=0;endArrow=none;startFill=0;" edge="1" parent="1" source="9tJvdBPEsyt49rl8PEOp-1" target="ZIB16xMMiRdHyzclf_tV-25">
          <mxGeometry relative="1" as="geometry" />
        </mxCell>
        <mxCell id="ZIB16xMMiRdHyzclf_tV-40" style="edgeStyle=orthogonalEdgeStyle;rounded=0;orthogonalLoop=1;jettySize=auto;html=1;entryX=0;entryY=0.5;entryDx=0;entryDy=0;endArrow=none;startFill=0;" edge="1" parent="1" source="9tJvdBPEsyt49rl8PEOp-1" target="ZIB16xMMiRdHyzclf_tV-27">
          <mxGeometry relative="1" as="geometry" />
        </mxCell>
        <mxCell id="ZIB16xMMiRdHyzclf_tV-41" style="edgeStyle=orthogonalEdgeStyle;rounded=0;orthogonalLoop=1;jettySize=auto;html=1;entryX=0;entryY=0.5;entryDx=0;entryDy=0;endArrow=none;startFill=0;" edge="1" parent="1" source="9tJvdBPEsyt49rl8PEOp-1" target="ZIB16xMMiRdHyzclf_tV-37">
          <mxGeometry relative="1" as="geometry">
            <Array as="points">
              <mxPoint x="170" y="305" />
              <mxPoint x="170" y="445" />
            </Array>
          </mxGeometry>
        </mxCell>
        <mxCell id="9tJvdBPEsyt49rl8PEOp-1" value="Actor" style="shape=umlActor;verticalLabelPosition=bottom;verticalAlign=top;html=1;" vertex="1" parent="1">
          <mxGeometry x="40" y="275" width="30" height="60" as="geometry" />
        </mxCell>
        <mxCell id="ZIB16xMMiRdHyzclf_tV-24" value="DietApp" style="shape=umlFrame;whiteSpace=wrap;html=1;pointerEvents=0;" vertex="1" parent="1">
          <mxGeometry x="210" y="90" width="640" height="590" as="geometry" />
        </mxCell>
        <mxCell id="ZIB16xMMiRdHyzclf_tV-35" style="edgeStyle=orthogonalEdgeStyle;rounded=0;orthogonalLoop=1;jettySize=auto;html=1;entryX=0;entryY=0.5;entryDx=0;entryDy=0;dashed=1;dashPattern=8 8;" edge="1" parent="1" source="ZIB16xMMiRdHyzclf_tV-25" target="ZIB16xMMiRdHyzclf_tV-34">
          <mxGeometry relative="1" as="geometry" />
        </mxCell>
        <mxCell id="ZIB16xMMiRdHyzclf_tV-36" value="&amp;lt;&amp;lt;include&amp;gt;&amp;gt;" style="edgeLabel;html=1;align=center;verticalAlign=middle;resizable=0;points=[];" connectable="0" vertex="1" parent="ZIB16xMMiRdHyzclf_tV-35">
          <mxGeometry x="-0.0338" y="-1" relative="1" as="geometry">
            <mxPoint as="offset" />
          </mxGeometry>
        </mxCell>
        <mxCell id="ZIB16xMMiRdHyzclf_tV-25" value="Input Information" style="ellipse;whiteSpace=wrap;html=1;" vertex="1" parent="1">
          <mxGeometry x="270" y="130" width="140" height="70" as="geometry" />
        </mxCell>
        <mxCell id="ZIB16xMMiRdHyzclf_tV-27" value="Get meal" style="ellipse;whiteSpace=wrap;html=1;" vertex="1" parent="1">
          <mxGeometry x="270" y="270" width="140" height="70" as="geometry" />
        </mxCell>
        <mxCell id="ZIB16xMMiRdHyzclf_tV-34" value="Analyze Calories" style="ellipse;whiteSpace=wrap;html=1;" vertex="1" parent="1">
          <mxGeometry x="540" y="130" width="140" height="70" as="geometry" />
        </mxCell>
        <mxCell id="ZIB16xMMiRdHyzclf_tV-47" style="edgeStyle=orthogonalEdgeStyle;rounded=0;orthogonalLoop=1;jettySize=auto;html=1;dashed=1;dashPattern=8 8;" edge="1" parent="1" source="ZIB16xMMiRdHyzclf_tV-37" target="ZIB16xMMiRdHyzclf_tV-39">
          <mxGeometry relative="1" as="geometry" />
        </mxCell>
        <mxCell id="ZIB16xMMiRdHyzclf_tV-37" value="Add Recipe" style="ellipse;whiteSpace=wrap;html=1;" vertex="1" parent="1">
          <mxGeometry x="360" y="400" width="140" height="70" as="geometry" />
        </mxCell>
        <mxCell id="ZIB16xMMiRdHyzclf_tV-38" value="Recipes list" style="shape=umlActor;verticalLabelPosition=bottom;verticalAlign=top;html=1;" vertex="1" parent="1">
          <mxGeometry x="980" y="275" width="30" height="60" as="geometry" />
        </mxCell>
        <mxCell id="ZIB16xMMiRdHyzclf_tV-39" value="Check Recipe" style="ellipse;whiteSpace=wrap;html=1;" vertex="1" parent="1">
          <mxGeometry x="680" y="400" width="140" height="70" as="geometry" />
        </mxCell>
        <mxCell id="ZIB16xMMiRdHyzclf_tV-46" style="edgeStyle=orthogonalEdgeStyle;rounded=0;orthogonalLoop=1;jettySize=auto;html=1;" edge="1" parent="1" source="ZIB16xMMiRdHyzclf_tV-43" target="ZIB16xMMiRdHyzclf_tV-37">
          <mxGeometry relative="1" as="geometry" />
        </mxCell>
        <mxCell id="ZIB16xMMiRdHyzclf_tV-43" value="Add Main Dish Recipe" style="ellipse;whiteSpace=wrap;html=1;" vertex="1" parent="1">
          <mxGeometry x="270" y="530" width="140" height="70" as="geometry" />
        </mxCell>
        <mxCell id="ZIB16xMMiRdHyzclf_tV-45" style="edgeStyle=orthogonalEdgeStyle;rounded=0;orthogonalLoop=1;jettySize=auto;html=1;entryX=0.5;entryY=1;entryDx=0;entryDy=0;" edge="1" parent="1" source="ZIB16xMMiRdHyzclf_tV-44" target="ZIB16xMMiRdHyzclf_tV-37">
          <mxGeometry relative="1" as="geometry" />
        </mxCell>
        <mxCell id="ZIB16xMMiRdHyzclf_tV-44" value="Add Desert Recipe" style="ellipse;whiteSpace=wrap;html=1;" vertex="1" parent="1">
          <mxGeometry x="470" y="530" width="140" height="70" as="geometry" />
        </mxCell>
      </root>
    </mxGraphModel>
  </diagram>
</mxfile>
